<svg xmlns="http://www.w3.org/2000/svg" width="40" height="40" viewBox="0 0 40 40">
    <path fill="#5B9AF8" fill-rule="evenodd" d="M29.281 28.281V18.156h-2.11c.21.657.313 1.339.313 2.047 0 1.313-.333 2.524-1 3.633-.666 1.11-1.573 1.987-2.718 2.633-1.146.646-2.396.969-3.75.969-2.052 0-3.808-.706-5.266-2.118-1.458-1.411-2.188-3.117-2.188-5.117 0-.708.105-1.39.313-2.047h-2.203v10.125c0 .271.091.498.273.68.183.182.41.273.68.273h16.703c.26 0 .484-.09.672-.273.187-.182.281-.409.281-.68zm-5.86-5.015c.949-.917 1.423-2.021 1.423-3.313 0-1.292-.472-2.393-1.414-3.305-.943-.911-2.081-1.367-3.414-1.367-1.323 0-2.456.456-3.399 1.367-.943.912-1.414 2.013-1.414 3.305 0 1.292.471 2.393 1.414 3.305.943.911 2.076 1.367 3.399 1.367 1.333 0 2.468-.453 3.406-1.36zm5.86-8.938V11.75c0-.292-.104-.544-.312-.758-.209-.213-.464-.32-.766-.32h-2.719c-.302 0-.557.107-.765.32-.209.214-.313.466-.313.758v2.578c0 .302.104.557.313.766.208.208.463.312.765.312h2.72c.301 0 .556-.104.765-.312.208-.209.312-.464.312-.766zM32 11.078v17.844c0 .844-.302 1.568-.906 2.172-.604.604-1.328.906-2.172.906H11.078c-.844 0-1.568-.302-2.172-.906C8.302 30.49 8 29.766 8 28.922V11.078c0-.844.302-1.568.906-2.172C9.51 8.302 10.234 8 11.078 8h17.844c.844 0 1.568.302 2.172.906.604.604.906 1.328.906 2.172z"/>
</svg>
