<svg xmlns="http://www.w3.org/2000/svg" width="40" height="40" viewBox="0 0 40 40">
    <path fill="#5B9AF8" fill-rule="evenodd" d="M11.703 28.094h3.61V17.25h-3.61v10.844zm3.844-14.188c-.01-.541-.198-.99-.563-1.343-.364-.355-.849-.532-1.453-.532-.604 0-1.096.177-1.476.532-.38.354-.57.802-.57 1.343 0 .532.184.977.554 1.336.37.36.852.54 1.445.54h.016c.615 0 1.11-.18 1.484-.54.375-.36.563-.804.563-1.336zm9.14 14.188h3.61v-6.219c0-1.604-.38-2.818-1.14-3.64C26.395 17.41 25.39 17 24.14 17c-1.417 0-2.506.61-3.266 1.828h.031V17.25h-3.61c.032.688.032 4.302 0 10.844h3.61V22.03c0-.396.037-.687.11-.875.156-.364.39-.674.703-.93.312-.255.698-.382 1.156-.382 1.208 0 1.812.817 1.812 2.453v5.797zM32 12.5v15c0 1.24-.44 2.3-1.32 3.18-.88.88-1.94 1.32-3.18 1.32h-15c-1.24 0-2.3-.44-3.18-1.32C8.44 29.8 8 28.74 8 27.5v-15c0-1.24.44-2.3 1.32-3.18C10.2 8.44 11.26 8 12.5 8h15c1.24 0 2.3.44 3.18 1.32.88.88 1.32 1.94 1.32 3.18z"/>
</svg>
