<svg xmlns="http://www.w3.org/2000/svg" width="40" height="40" viewBox="0 0 40 40">
    <path fill="#5B9AF8" fill-rule="evenodd" d="M28 15.531c-.583.26-1.214.438-1.89.532.708-.417 1.192-1.027 1.452-1.829-.677.396-1.375.662-2.093.797-.636-.687-1.433-1.031-2.39-1.031-.907 0-1.68.32-2.321.96-.64.642-.961 1.415-.961 2.321 0 .302.026.552.078.75-1.344-.073-2.604-.411-3.781-1.015-1.177-.605-2.177-1.412-3-2.422-.302.52-.453 1.073-.453 1.656 0 1.188.474 2.099 1.421 2.734-.49-.01-1.01-.145-1.562-.406v.031c0 .782.26 1.477.781 2.086.521.61 1.162.987 1.922 1.133-.302.083-.568.125-.797.125-.135 0-.338-.02-.61-.062.22.656.608 1.198 1.165 1.625.557.427 1.19.645 1.898.656-1.208.937-2.567 1.406-4.078 1.406-.27 0-.531-.015-.781-.047 1.542.98 3.219 1.469 5.031 1.469 1.167 0 2.26-.185 3.281-.555 1.021-.37 1.896-.864 2.625-1.484.73-.62 1.357-1.333 1.883-2.14.526-.808.917-1.652 1.172-2.532.255-.88.383-1.758.383-2.633 0-.187-.005-.328-.016-.422.657-.468 1.203-1.036 1.641-1.703zm4-3.031v15c0 1.24-.44 2.3-1.32 3.18-.88.88-1.94 1.32-3.18 1.32h-15c-1.24 0-2.3-.44-3.18-1.32C8.44 29.8 8 28.74 8 27.5v-15c0-1.24.44-2.3 1.32-3.18C10.2 8.44 11.26 8 12.5 8h15c1.24 0 2.3.44 3.18 1.32.88.88 1.32 1.94 1.32 3.18z"/>
</svg>
