<?xml version="1.0" encoding="UTF-8"?>
<svg width="1440px" height="1024px" viewBox="0 0 1440 1024" version="1.1" xmlns="http://www.w3.org/2000/svg" xmlns:xlink="http://www.w3.org/1999/xlink">
    <!-- Generator: sketchtool 63.1 (101010) - https://sketch.com -->
    <title>05FAEA92-26A5-41E6-90C1-C24A10C9BB67</title>
    <desc>Created with sketchtool.</desc>
    <g id="V4-Desktop" stroke="none" stroke-width="1" fill="none" fill-rule="evenodd" stroke-linecap="square">
        <g id="Venue-Profile/edit/edit-event/report-a-problem" stroke-width="3">
            <g id="background-" transform="translate(-263.000000, -280.000000)">
                <g id="green" transform="translate(0.000000, 475.000000)" stroke="#72FACA">
                    <path d="M-99.2972094,531.500684 C-4.96387608,507.166667 45.2654364,494.003236 50.7027906,492 C60.2027906,488.5 147.849941,452 200.702791,452 C257.079849,452 334.202791,485.5 350.702791,492 C367.202791,498.5 448.307966,531.251683 500.702791,531.500684 C537.204286,531.672993 631.202791,499 650.702791,492 C670.202791,485 718.450423,452 800.702791,452 C878.521214,452 928.202791,485 950.702791,492 C965.702791,496.666667 1015.70279,509.833561 1100.70279,531.500684" id="Line-3-Copy-9" transform="translate(500.702791, 491.750342) rotate(51.000000) translate(-500.702791, -491.750342) "></path>
                    <path d="M-122.222907,550.062436 C-27.8895737,525.728419 22.3397388,512.564988 27.7770929,510.561752 C37.2770929,507.061752 124.924243,470.561752 177.777093,470.561752 C234.154152,470.561752 311.277093,504.061752 327.777093,510.561752 C344.277093,517.061752 425.382269,549.813435 477.777093,550.062436 C514.278589,550.234745 608.277093,517.561752 627.777093,510.561752 C647.277093,503.561752 695.524725,470.561752 777.777093,470.561752 C855.595516,470.561752 905.277093,503.561752 927.777093,510.561752 C942.777093,515.228419 992.777093,528.395314 1077.77709,550.062436" id="Line-3-Copy-11" transform="translate(477.777093, 510.312094) rotate(51.000000) translate(-477.777093, -510.312094) "></path>
                    <path d="M-145.148605,568.624189 C-50.8152714,544.290171 -0.585958853,531.12674 4.8513953,529.123504 C14.3513953,525.623504 101.998546,489.123504 154.851395,489.123504 C211.228454,489.123504 288.351395,522.623504 304.851395,529.123504 C321.351395,535.623504 402.456571,568.375187 454.851395,568.624189 C491.352891,568.796497 585.351395,536.123504 604.851395,529.123504 C624.351395,522.123504 672.599028,489.123504 754.851395,489.123504 C832.669818,489.123504 882.351395,522.123504 904.851395,529.123504 C919.851395,533.790171 969.851395,546.957066 1054.8514,568.624189" id="Line-3-Copy-12" transform="translate(454.851395, 528.873846) rotate(51.000000) translate(-454.851395, -528.873846) "></path>
                    <path d="M-168.074302,587.185941 C-73.740969,562.851923 -23.5116565,549.688492 -18.0743024,547.685256 C-8.57430235,544.185256 79.0728482,507.685256 131.925698,507.685256 C188.302756,507.685256 265.425698,541.185256 281.925698,547.685256 C298.425698,554.185256 379.530873,586.936939 431.925698,587.185941 C468.427193,587.358249 562.425698,554.685256 581.925698,547.685256 C601.425698,540.685256 649.67333,507.685256 731.925698,507.685256 C809.744121,507.685256 859.425698,540.685256 881.925698,547.685256 C896.925698,552.351923 946.925698,565.518818 1031.9257,587.185941" id="Line-3-Copy-13" transform="translate(431.925698, 547.435598) rotate(51.000000) translate(-431.925698, -547.435598) "></path>
                    <path d="M-191,605.747693 C-96.6666667,581.413675 -46.4373541,568.250244 -41,566.247008 C-31.5,562.747008 56.1471505,526.247008 109,526.247008 C165.377059,526.247008 242.5,559.747008 259,566.247008 C275.5,572.747008 356.605176,605.498692 409,605.747693 C445.501496,605.920001 539.5,573.247008 559,566.247008 C578.5,559.247008 626.747632,526.247008 709,526.247008 C786.818423,526.247008 836.5,559.247008 859,566.247008 C874,570.913675 924,584.08057 1009,605.747693" id="Line-3-Copy-14" transform="translate(409.000000, 565.997350) rotate(51.000000) translate(-409.000000, -565.997350) "></path>
                </g>
                <g id="blue" transform="translate(1097.000000, 0.000000)" stroke="#5B9AF8">
                    <path d="M-99.2972094,531.500684 C-4.96387608,507.166667 45.2654364,494.003236 50.7027906,492 C60.2027906,488.5 147.849941,452 200.702791,452 C257.079849,452 334.202791,485.5 350.702791,492 C367.202791,498.5 448.307966,531.251683 500.702791,531.500684 C537.204286,531.672993 631.202791,499 650.702791,492 C670.202791,485 718.450423,452 800.702791,452 C878.521214,452 928.202791,485 950.702791,492 C965.702791,496.666667 1015.70279,509.833561 1100.70279,531.500684" id="Line-3-Copy-8" transform="translate(500.702791, 491.750342) rotate(51.000000) translate(-500.702791, -491.750342) "></path>
                    <path d="M-122.222907,550.062436 C-27.8895737,525.728419 22.3397388,512.564988 27.7770929,510.561752 C37.2770929,507.061752 124.924243,470.561752 177.777093,470.561752 C234.154152,470.561752 311.277093,504.061752 327.777093,510.561752 C344.277093,517.061752 425.382269,549.813435 477.777093,550.062436 C514.278589,550.234745 608.277093,517.561752 627.777093,510.561752 C647.277093,503.561752 695.524725,470.561752 777.777093,470.561752 C855.595516,470.561752 905.277093,503.561752 927.777093,510.561752 C942.777093,515.228419 992.777093,528.395314 1077.77709,550.062436" id="Line-3-Copy-28" transform="translate(477.777093, 510.312094) rotate(51.000000) translate(-477.777093, -510.312094) "></path>
                    <path d="M-145.148605,568.624189 C-50.8152714,544.290171 -0.585958853,531.12674 4.8513953,529.123504 C14.3513953,525.623504 101.998546,489.123504 154.851395,489.123504 C211.228454,489.123504 288.351395,522.623504 304.851395,529.123504 C321.351395,535.623504 402.456571,568.375187 454.851395,568.624189 C491.352891,568.796497 585.351395,536.123504 604.851395,529.123504 C624.351395,522.123504 672.599028,489.123504 754.851395,489.123504 C832.669818,489.123504 882.351395,522.123504 904.851395,529.123504 C919.851395,533.790171 969.851395,546.957066 1054.8514,568.624189" id="Line-3-Copy-27" transform="translate(454.851395, 528.873846) rotate(51.000000) translate(-454.851395, -528.873846) "></path>
                    <path d="M-168.074302,587.185941 C-73.740969,562.851923 -23.5116565,549.688492 -18.0743024,547.685256 C-8.57430235,544.185256 79.0728482,507.685256 131.925698,507.685256 C188.302756,507.685256 265.425698,541.185256 281.925698,547.685256 C298.425698,554.185256 379.530873,586.936939 431.925698,587.185941 C468.427193,587.358249 562.425698,554.685256 581.925698,547.685256 C601.425698,540.685256 649.67333,507.685256 731.925698,507.685256 C809.744121,507.685256 859.425698,540.685256 881.925698,547.685256 C896.925698,552.351923 946.925698,565.518818 1031.9257,587.185941" id="Line-3-Copy-26" transform="translate(431.925698, 547.435598) rotate(51.000000) translate(-431.925698, -547.435598) "></path>
                    <path d="M-191,605.747693 C-96.6666667,581.413675 -46.4373541,568.250244 -41,566.247008 C-31.5,562.747008 56.1471505,526.247008 109,526.247008 C165.377059,526.247008 242.5,559.747008 259,566.247008 C275.5,572.747008 356.605176,605.498692 409,605.747693 C445.501496,605.920001 539.5,573.247008 559,566.247008 C578.5,559.247008 626.747632,526.247008 709,526.247008 C786.818423,526.247008 836.5,559.247008 859,566.247008 C874,570.913675 924,584.08057 1009,605.747693" id="Line-3-Copy-25" transform="translate(409.000000, 565.997350) rotate(51.000000) translate(-409.000000, -565.997350) "></path>
                </g>
            </g>
        </g>
    </g>
</svg>